# xmcd
#
# Track frame offsets: 
#        150
#        11542
#        20955
#        30960
#        42302
#        55362
#        76427
#        89722
#        102512
#        111180
#        124510
#        137277
#        148890
#        160162
#        170985
#        182110
#        209097
#        218890
#
# Disc length: 3090 seconds
#
# Revision: 2
# Processed by: cddbd v1.5.2PL0 Copyright (c) Steve Scherf et al.
# Submitted via: ExactAudioCopy v0.99pb5
#
DISCID=0c0c1012
DTITLE=Various Artist - The History Of Country Music - The Fifties - Volume 2
DTITLE=Various Artist - CD 2
DYEAR=1993
DGENRE=Country
TTITLE0=Webb Pierce - Slowly
TTITLE1=Jim Reeves - Billy Bayou
TTITLE2=Eddy Arnold - There's been a change in me
TTITLE3=Red Foley with The Dixie Dons - M-I-S-S-I-S-S-I-P-P-I
TTITLE4=Hank Williams - Hey, good lookin'
TTITLE5=Marty Robbins - El Paso
TTITLE6=Lefty Frizzell - If you've got the money I've got the time
TTITLE7=Browns - The three bells
TTITLE8=Johnnie and Jack - Oh baby mine
TTITLE9=Bobby Helms - My special angel
TTITLE10=Hank Snow and Rainbow Ranch Boys - I'm movin' on
TTITLE11=Ray Price - My shoes keep walking back to you
TTITLE12=Carl Smith - Hey Joe
TTITLE13=Eddy Arnold - Eddy's song
TTITLE14=Stonewall Jackson - Waterloo
TTITLE15=Homer and Jethro - (How much is) that hound dog in the window
TTITLE16=Johnny Cash And The Tennessee Two - Ballad of a teenage queen
TTITLE17=Jerry Lee Lewis - Whole lotta shakin' goin' on
EXTD=
EXTT0=
EXTT1=
EXTT2=
EXTT3=
EXTT4=
EXTT5=
EXTT6=
EXTT7=
EXTT8=
EXTT9=
EXTT10=
EXTT11=
EXTT12=
EXTT13=
EXTT14=
EXTT15=
EXTT16=
EXTT17=
PLAYORDER=
